<?xml version="1.0" standalone="no"?>
<!DOCTYPE svg PUBLIC "-//W3C//DTD SVG 20010904//EN"
 "http://www.w3.org/TR/2001/REC-SVG-20010904/DTD/svg10.dtd">
<svg version="1.0" xmlns="http://www.w3.org/2000/svg"
 width="1920.000000pt" height="544.000000pt" viewBox="0 0 1920.000000 544.000000"
 preserveAspectRatio="xMidYMid meet">

<g transform="translate(0.000000,544.000000) scale(0.100000,-0.100000)"
fill="#000000" stroke="none">
<path d="M3552 1280 l-402 -5 18 -35 c15 -30 15 -39 5 -60 l-12 -25 657 -6
c941 -9 7425 -10 7438 -1 17 10 22 131 6 137 -16 6 -7188 2 -7710 -5z"/>
<path d="M14956 1265 c4 -8 18 -16 33 -16 54 -3 147 -1 181 5 21 3 37 1 42 -7
5 -8 8 -4 8 11 0 22 -2 22 -135 22 -115 0 -134 -2 -129 -15z"/>
<path d="M15110 1195 c-1 -19 -1 -19 -11 -2 -9 15 -13 16 -26 5 -9 -7 -28 -14
-42 -14 -50 -3 -106 -13 -131 -23 -18 -7 22 -10 148 -10 l172 -1 0 34 0 35
-55 -2 c-48 -2 -55 -5 -55 -22z"/>
</g>
</svg>
