<?xml version="1.0" standalone="no"?>
<!DOCTYPE svg PUBLIC "-//W3C//DTD SVG 20010904//EN"
 "http://www.w3.org/TR/2001/REC-SVG-20010904/DTD/svg10.dtd">
<svg version="1.0" xmlns="http://www.w3.org/2000/svg"
 width="1920.000000pt" height="544.000000pt" viewBox="0 0 1920.000000 544.000000"
 preserveAspectRatio="xMidYMid meet">
<metadata>
Created by potrace 1.16, written by Peter Selinger 2001-2019
</metadata>
<g transform="translate(0.000000,544.000000) scale(0.100000,-0.100000)"
fill="#000000" stroke="none">
<path d="M14069 3948 c-7 -13 -18 -27 -25 -31 -20 -12 -17 -35 6 -42 19 -6 20
-15 20 -160 l0 -155 -25 -6 c-14 -3 -25 -13 -25 -20 0 -12 18 -14 92 -12 91 3
118 15 76 33 -23 10 -23 14 -26 205 -2 140 -6 196 -15 202 -25 16 -66 8 -78
-14z"/>
<path d="M11087 3943 c-4 -3 -7 -565 -7 -1249 0 -984 3 -1243 13 -1247 6 -2
71 -4 142 -3 l130 1 5 395 5 395 260 0 260 0 3 -51 c2 -42 7 -53 23 -57 11 -3
23 -14 26 -25 2 -11 16 -25 29 -31 13 -6 24 -17 24 -25 0 -8 9 -17 19 -21 11
-3 23 -15 26 -26 4 -11 18 -25 31 -31 13 -6 24 -15 24 -19 0 -4 52 -58 115
-121 63 -62 120 -119 127 -126 7 -7 37 -37 66 -66 43 -44 52 -59 52 -88 0 -27
6 -40 25 -52 14 -9 25 -23 25 -31 0 -13 26 -15 188 -13 l187 3 3 48 c2 33 -1
47 -10 47 -7 1 -29 19 -48 41 -19 22 -50 54 -69 72 -19 18 -53 50 -76 72 -23
22 -50 45 -61 51 -14 8 -20 24 -22 58 -2 32 -8 49 -19 53 -9 3 -43 35 -77 70
-168 174 -359 363 -367 363 -5 0 -9 25 -9 55 0 30 4 55 8 55 5 0 77 68 160
150 83 83 158 150 165 150 18 0 27 21 27 66 0 19 4 34 9 34 7 0 168 157 256
250 6 6 38 38 73 72 57 55 63 64 60 97 l-3 36 -192 3 c-185 2 -192 2 -198 -18
-4 -11 -17 -28 -31 -36 -13 -9 -24 -20 -24 -25 0 -13 -67 -79 -79 -79 -5 0
-12 -9 -16 -19 -3 -11 -14 -23 -24 -26 -12 -4 -21 -19 -25 -46 -6 -36 -29 -63
-220 -254 -117 -118 -219 -224 -227 -236 -14 -21 -21 -21 -234 -23 -121 -1
-226 0 -232 2 -10 3 -13 154 -13 708 l0 704 -138 0 c-76 0 -142 -3 -145 -7z"/>
<path d="M14248 3812 c-16 -3 -18 -17 -18 -120 0 -106 2 -118 20 -130 11 -7
20 -19 20 -27 0 -13 33 -15 230 -15 l231 0 35 35 c28 29 35 42 32 68 -3 28 -7
33 -38 37 -34 5 -112 48 -125 70 -11 17 15 40 45 40 19 0 30 -7 39 -26 6 -14
17 -24 24 -22 17 6 22 79 5 89 -20 13 -152 11 -166 -3 -7 -7 -12 -36 -12 -65
0 -45 4 -55 24 -69 14 -8 26 -25 28 -37 2 -18 11 -23 46 -25 38 -3 43 -6 40
-25 -2 -18 -11 -23 -45 -25 -34 -3 -42 0 -48 17 -6 20 -22 27 -75 33 -24 3
-25 5 -30 103 l-5 100 -120 0 c-66 1 -128 -1 -137 -3z m180 -119 c3 -64 1 -73
-18 -83 -36 -19 -50 3 -50 80 0 36 3 70 7 74 4 4 19 6 33 4 24 -3 25 -6 28
-75z"/>
<path d="M13693 3784 c-26 -28 -30 -54 -9 -54 25 0 28 -16 31 -161 2 -113 0
-142 -12 -154 -8 -8 -19 -15 -24 -15 -5 0 -14 -11 -19 -25 -9 -24 -14 -25 -83
-25 -69 0 -75 -2 -85 -25 -10 -21 -18 -25 -56 -25 -36 0 -46 -4 -51 -20 -3
-11 -15 -25 -26 -30 -14 -8 -19 -21 -19 -53 0 -38 -3 -44 -30 -54 l-30 -11 0
-680 c0 -374 3 -694 6 -711 4 -20 12 -31 24 -31 22 0 42 -23 40 -47 -5 -41 1
-63 15 -63 9 0 21 -11 27 -25 9 -21 18 -25 54 -25 38 0 45 -4 59 -30 l16 -30
792 2 792 3 3 143 3 142 -563 1 c-310 1 -567 2 -573 4 -5 1 -84 3 -173 3 -151
2 -164 3 -169 21 -2 10 -16 24 -29 30 l-24 11 2 206 3 206 755 2 755 1 0 365
0 365 -140 -1 -140 0 -5 -210 -5 -209 -613 -3 -612 -2 2 242 3 243 825 5 825
5 3 143 3 142 -683 0 c-376 0 -688 4 -694 8 -6 4 -16 17 -23 30 -6 12 -18 22
-25 22 -8 0 -16 10 -20 23 -18 67 3 87 95 87 53 0 69 3 69 14 0 8 9 21 19 28
20 14 28 85 23 201 l-2 47 -142 -1 c-138 -1 -144 -2 -165 -25z m225 -107 c2
-27 -2 -55 -9 -63 -13 -16 -56 -18 -93 -4 -22 8 -26 16 -26 49 0 67 5 72 69
69 l56 -3 3 -48z"/>
<path d="M3936 3725 c-6 -22 -12 -25 -51 -25 -25 0 -45 -5 -45 -10 0 -6 -34
-44 -75 -85 l-75 -75 0 -414 0 -414 25 -16 c20 -13 25 -25 25 -55 0 -30 5 -42
25 -55 14 -9 25 -23 25 -31 0 -7 9 -16 19 -20 11 -3 23 -15 26 -26 6 -16 16
-19 75 -19 62 0 69 -2 76 -22 4 -13 12 -26 18 -30 6 -4 368 -8 804 -8 l792 0
0 -50 c0 -43 3 -50 20 -50 10 0 24 -9 30 -19 11 -22 14 -419 2 -437 -4 -7 -16
-13 -27 -15 -16 -3 -21 -14 -25 -54 l-5 -50 -777 -3 -778 -2 -6 25 c-3 13 -14
27 -24 30 -22 7 -30 34 -30 103 l0 52 -145 0 -145 0 0 -143 c0 -144 0 -144 25
-155 14 -6 25 -16 25 -21 0 -6 34 -43 75 -84 41 -40 75 -78 75 -84 0 -6 7 -13
15 -17 21 -8 1748 -8 1769 0 9 3 16 14 16 24 0 13 11 19 41 23 25 3 49 15 64
31 13 14 31 26 40 26 11 0 15 11 15 45 0 39 4 47 25 57 22 10 24 18 27 77 3
58 6 67 26 76 l22 10 -2 305 c-3 303 -3 305 -24 308 -26 4 -36 33 -27 85 5 36
3 40 -57 97 -34 33 -66 60 -71 60 -5 0 -15 11 -21 25 -14 30 95 27 -893 29
l-769 1 -13 25 c-9 18 -22 26 -50 30 l-38 5 0 305 c0 299 0 305 20 308 11 2
25 13 30 25 l10 22 739 3 739 2 42 -42 c23 -24 50 -48 61 -54 14 -8 20 -24 22
-58 l3 -46 150 0 149 0 0 70 c0 66 -2 71 -25 80 -23 9 -25 14 -25 75 0 60 -2
66 -24 75 -13 5 -27 18 -31 29 -3 12 -11 21 -18 21 -11 0 -83 72 -89 90 -2 6
-21 12 -42 14 -27 2 -44 9 -54 24 l-14 22 -843 0 -843 0 -6 -25z"/>
<path d="M3040 2371 c0 -726 3 -920 13 -924 6 -2 71 -4 142 -3 l130 1 3 923 2
922 -145 0 -145 0 0 -919z"/>
<path d="M6195 3278 c-3 -7 -4 -422 -3 -923 l3 -910 143 -3 c110 -2 142 0 143
10 0 7 0 344 -1 750 -1 735 -1 736 19 743 12 3 24 17 27 31 l6 24 422 -2 421
-3 5 -775 5 -775 140 0 140 0 3 718 2 718 24 9 c21 8 25 17 28 57 l3 48 378 3
c377 2 379 2 384 -19 3 -11 16 -25 29 -29 l24 -9 2 -748 3 -748 140 0 140 0 3
798 c2 634 0 797 -10 797 -26 0 -41 19 -43 53 -3 28 -17 49 -74 107 -39 40
-71 77 -71 82 0 4 -547 8 -1215 8 -963 0 -1217 -3 -1220 -12z"/>
<path d="M9210 3279 c0 -6 -32 -43 -71 -81 -61 -59 -70 -73 -66 -96 6 -32 -8
-62 -28 -62 -13 0 -15 -87 -15 -663 l0 -662 23 -10 c17 -8 23 -20 25 -54 3
-36 10 -51 38 -78 20 -18 39 -33 44 -33 4 0 10 -9 13 -20 4 -16 14 -20 46 -20
35 0 43 -4 51 -24 l9 -24 223 -7 c123 -4 417 -3 653 2 l430 8 3 23 c3 18 10
22 42 22 33 0 47 8 94 54 47 45 56 59 56 89 0 48 9 67 31 67 18 0 19 19 19
664 l0 664 -25 6 c-21 5 -25 12 -25 44 0 35 -8 47 -80 120 l-80 82 -705 0
c-512 0 -705 -3 -705 -11z m1280 -294 c0 -8 11 -22 25 -31 l25 -16 0 -563 0
-563 -25 -16 c-14 -9 -25 -23 -25 -31 0 -8 -10 -17 -22 -20 -13 -3 -264 -4
-558 -3 l-535 3 -10 22 c-5 12 -19 26 -32 32 l-23 11 0 566 c0 564 0 566 21
571 11 3 25 16 30 29 l9 24 560 0 c487 0 560 -2 560 -15z"/>
<path d="M3489 1222 l-396 -2 4 -33 c3 -17 9 -42 16 -55 8 -18 8 -25 -1 -31
-7 -4 405 -11 915 -15 1122 -8 7063 -8 7116 1 31 5 37 9 31 25 -10 32 6 98 24
99 10 1 4 4 -13 8 -27 7 -6771 10 -7696 3z"/>
<path d="M14812 1213 c42 -4 47 -7 50 -31 2 -19 8 -27 21 -26 9 1 17 -4 17
-12 0 -8 -22 -17 -60 -25 -33 -6 -60 -16 -60 -20 0 -5 81 -9 180 -9 l180 0 0
65 0 65 -187 -2 c-104 -1 -167 -3 -141 -5z m308 -22 c0 -5 -11 -11 -25 -13
-23 -5 -32 2 -20 13 8 8 45 8 45 0z"/>
</g>
</svg>
