<?xml version="1.0" standalone="no"?>
<!DOCTYPE svg PUBLIC "-//W3C//DTD SVG 20010904//EN"
 "http://www.w3.org/TR/2001/REC-SVG-20010904/DTD/svg10.dtd">
<svg version="1.0" xmlns="http://www.w3.org/2000/svg"
 width="600.000000pt" height="600.000000pt" viewBox="0 0 600.000000 600.000000"
 preserveAspectRatio="xMidYMid meet">
<g transform="translate(0.000000,600.000000) scale(0.100000,-0.100000)"
fill="#000000" stroke="none">
<path d="M2810 5494 c-14 -2 -39 -7 -57 -10 -18 -2 -46 -16 -63 -30 l-30 -26
0 -142 0 -143 -41 -12 c-52 -16 -88 -54 -95 -102 -4 -26 -13 -40 -26 -45 -42
-13 -59 -116 -39 -239 7 -39 5 -57 -8 -80 -14 -26 -16 -67 -15 -292 1 -225 3
-265 17 -287 13 -19 15 -31 7 -51 -6 -15 -10 -73 -10 -131 l0 -104 -42 -1
c-181 -2 -377 -18 -413 -33 -55 -23 -119 -89 -147 -150 l-23 -51 -6 -710 c-10
-1113 -10 -1963 1 -2038 12 -82 38 -135 96 -197 72 -77 111 -89 336 -100 106
-5 339 -12 518 -16 311 -6 335 -5 550 20 253 30 279 36 326 68 42 29 99 116
120 182 24 76 26 242 17 1581 l-8 1200 -26 56 c-33 69 -90 134 -141 160 -21
11 -68 23 -103 26 -62 6 -65 7 -65 32 0 15 -5 32 -12 39 -9 9 -9 15 0 24 17
17 16 139 -2 163 -12 17 -11 23 3 44 23 35 30 509 9 562 -11 27 -12 54 -5 131
12 119 1 168 -43 195 -21 12 -30 25 -30 44 0 37 -33 75 -78 90 -62 20 -62 19
-62 168 -1 97 -4 141 -14 153 -28 37 -85 50 -231 53 -77 2 -151 2 -165 -1z
m305 -48 c6 -1 24 -10 39 -20 l28 -18 -6 -124 c-3 -68 -3 -124 2 -124 4 0 12
-10 17 -22 6 -13 28 -32 49 -43 57 -29 76 -47 76 -70 0 -11 13 -36 30 -55 16
-19 29 -39 30 -45 0 -5 -7 1 -16 13 -9 13 -27 27 -40 32 -16 6 -22 14 -18 25
9 23 -32 63 -93 91 l-53 23 0 120 c0 127 -9 168 -37 177 -10 3 -29 11 -43 17
-14 6 -28 11 -32 13 -5 1 -11 2 -15 3 -5 2 1 6 12 11 11 5 28 6 39 3 10 -3 24
-6 31 -7z m-249 -5 c-3 -5 -15 -7 -26 -4 -12 3 -20 0 -20 -6 0 -7 -4 -10 -9
-6 -5 3 -12 1 -16 -5 -4 -6 -10 -8 -14 -5 -5 2 -20 -5 -34 -18 -24 -21 -26
-28 -28 -120 -1 -54 -3 -96 -6 -94 -2 3 -6 42 -8 88 -3 46 -5 89 -6 94 -2 36
8 56 36 70 32 16 140 21 131 6z m199 -63 c-14 -45 -21 -130 -15 -179 l6 -49
-87 0 c-48 0 -93 -2 -101 -5 -10 -4 -13 13 -13 77 -1 77 -8 106 -42 170 -2 3
55 7 128 7 l132 2 -8 -23z m-268 -30 c10 -20 18 -65 21 -114 4 -78 4 -81 -19
-87 -13 -4 -28 -7 -34 -7 -6 0 -10 47 -10 120 0 129 9 149 42 88z m323 -82 c0
-63 3 -121 6 -130 5 -13 -2 -16 -37 -16 -35 1 -40 3 -26 11 14 8 17 24 17 92
0 85 14 157 30 157 6 0 10 -48 10 -114z m-393 -126 c2 -33 -20 -50 -83 -58 -5
-1 -20 -11 -32 -23 -12 -11 -27 -17 -33 -14 -15 10 7 33 40 40 15 3 42 23 61
45 19 22 37 39 40 40 3 0 6 -14 7 -30z m434 -76 c8 -7 33 -18 57 -25 24 -7 48
-21 53 -31 9 -17 6 -18 -63 -11 -114 12 -476 8 -537 -5 -30 -7 -56 -10 -59 -7
-12 12 19 55 39 55 11 0 35 7 52 15 42 19 81 22 278 21 109 -1 171 -5 180 -12z
m-581 -49 c-6 -7 -8 -20 -4 -29 7 -18 -13 -49 -26 -41 -5 3 -16 -5 -24 -17
-13 -17 -16 -19 -16 -6 0 9 7 23 15 32 8 8 15 17 15 21 0 4 7 13 16 22 8 9 13
22 10 29 -3 8 0 11 10 7 10 -4 12 -9 4 -18z m634 -70 c59 -8 114 -20 122 -26
11 -9 14 -34 12 -96 -2 -80 -3 -84 -22 -79 -114 32 -607 34 -719 2 -73 -20
-74 -20 -51 5 14 15 20 40 22 96 4 68 6 75 29 84 75 28 436 37 607 14z m-664
-84 c0 -49 -5 -74 -15 -85 -12 -11 -13 -21 -5 -41 7 -18 7 -33 0 -46 -18 -32
-30 -21 -31 29 -1 26 -2 59 -3 75 -2 33 7 35 22 5 9 -19 11 -13 11 39 1 57 7
93 17 93 2 0 4 -31 4 -69z m604 -130 c80 -6 144 -15 150 -22 8 -9 5 -10 -14
-5 -87 22 -516 16 -690 -10 -26 -4 -31 -3 -19 5 17 11 163 30 264 34 33 1 85
3 115 5 30 1 118 -2 194 -7z m236 -37 c0 -38 -4 -41 -28 -18 -17 18 -26 48
-11 38 5 -3 12 2 15 10 10 25 24 8 24 -30z m-600 -31 c-1 -24 -2 -25 -11 -10
-7 12 -23 17 -52 17 -52 0 -33 15 23 18 38 3 40 1 40 -25z m266 11 c-3 -9 -6
-44 -6 -79 l0 -63 -37 10 c-22 6 -71 8 -115 4 l-78 -6 0 75 0 75 121 0 c106 0
120 -2 115 -16z m-373 -29 l77 -7 0 -69 c0 -52 -3 -69 -14 -69 -26 0 -56 -35
-60 -70 -3 -19 -5 -90 -5 -157 l-1 -121 -40 -7 c-22 -4 -50 -15 -64 -26 -42
-33 -45 -14 -46 259 -1 277 2 297 48 282 15 -5 62 -12 105 -15z m668 -8 c12
-20 8 -491 -3 -503 -4 -4 -14 -2 -22 5 -8 6 -37 14 -65 18 -28 3 -55 11 -61
18 -5 6 -11 76 -12 156 l-3 144 -37 18 -38 19 0 67 c0 37 2 70 4 72 3 2 55 4
116 4 96 0 113 -2 121 -18z m-459 -119 c65 3 89 1 84 -7 -5 -7 -41 -11 -97
-11 -78 0 -89 2 -88 18 0 9 3 12 5 6 3 -6 37 -9 96 -6z m231 -56 l27 -12 0
-135 c0 -147 2 -143 -62 -125 -53 15 -68 42 -68 122 0 108 -25 138 -115 138
-60 0 -71 -20 -78 -135 -3 -49 -8 -97 -11 -106 -6 -15 -85 -66 -89 -58 -1 2 0
71 3 152 5 146 5 149 30 162 31 17 320 14 363 -3z m-172 -62 c16 -9 19 -22 19
-75 0 -79 23 -141 59 -160 15 -7 60 -18 101 -25 137 -20 162 -29 60 -22 -52 4
-184 6 -292 6 -109 -1 -196 2 -193 6 3 5 14 6 25 3 11 -3 40 2 64 11 58 22 76
65 76 181 l0 85 31 0 c17 0 39 -5 50 -10z m438 -292 c-6 -11 -8 -33 -5 -49 3
-16 1 -29 -4 -29 -13 0 -40 42 -34 52 3 4 -1 8 -8 8 -7 0 -4 6 7 12 11 6 24
17 28 25 13 22 28 4 16 -19z m-851 -62 c-7 -6 -17 -16 -23 -23 -7 -9 -10 -6
-10 10 -1 12 -4 37 -8 56 l-7 33 30 -32 c24 -26 28 -35 18 -44z m780 32 c-3
-7 -30 -10 -89 -7 -133 6 -465 4 -561 -4 -54 -4 -88 -3 -88 2 0 15 57 17 413
19 245 2 328 -1 325 -10z m-33 -57 l70 -6 3 -38 3 -37 -138 6 c-123 6 -141 5
-156 -10 -20 -20 -23 -79 -4 -93 6 -6 59 -13 117 -17 83 -5 110 -3 125 8 23
17 55 1 55 -27 0 -17 -6 -18 -77 -11 -105 11 -625 8 -691 -4 l-53 -9 3 116 3
116 50 6 c67 8 602 8 690 0z m111 -127 c-2 -25 -6 -47 -8 -50 -3 -2 -15 7 -28
20 l-22 25 28 25 c16 14 30 26 31 26 1 0 1 -21 -1 -46z m-138 6 c26 0 32 -4
32 -21 0 -19 -4 -21 -37 -15 -21 3 -66 6 -100 6 -58 0 -63 2 -63 21 0 21 3 22
68 16 37 -4 82 -7 100 -7z m-738 -132 c0 -9 -3 -19 -8 -21 -4 -3 -105 -8 -224
-11 -216 -6 -256 -12 -290 -43 -10 -9 -18 -13 -18 -8 0 4 -7 2 -15 -5 -8 -7
-12 -17 -8 -23 3 -5 2 -7 -4 -4 -5 3 -20 -13 -33 -35 l-24 -42 -1 -1351 c-1
-1084 1 -1358 11 -1391 8 -22 16 -58 20 -80 12 -78 80 -148 164 -167 23 -5
650 -20 925 -21 110 -1 123 1 153 22 18 13 30 27 27 32 -7 12 25 6 33 -7 12
-18 50 -33 83 -33 59 0 25 -9 -96 -24 -155 -20 -138 -20 -445 -12 -345 8 -641
24 -710 38 -30 7 -59 11 -63 10 -5 -2 -6 2 -2 8 3 5 1 10 -6 10 -19 0 -78 72
-104 127 l-25 52 0 1333 c0 733 4 1360 9 1393 5 33 15 74 22 90 7 17 13 32 13
35 3 17 74 74 105 84 37 14 181 25 336 27 84 2 91 3 115 29 20 22 28 25 42 16
10 -6 18 -18 18 -28z m908 12 c11 -18 10 -20 -18 -20 -30 0 -35 6 -24 34 7 18
25 12 42 -14z m-258 -37 c1 -10 21 -31 45 -46 27 -17 57 -48 73 -75 l27 -47 3
-1355 3 -1354 -30 -61 c-17 -33 -53 -84 -81 -114 -27 -29 -50 -59 -50 -67 0
-7 -16 -16 -37 -20 -50 -10 -992 14 -1034 26 -46 13 -90 46 -122 90 -41 58
-32 69 13 17 69 -78 99 -87 327 -97 109 -5 318 -12 465 -16 327 -9 336 -7 425
81 102 102 94 -31 91 1511 l-3 1339 -22 40 c-25 47 -75 96 -121 120 -52 26
-198 37 -417 31 -110 -2 -184 -1 -165 3 19 5 164 9 323 10 267 1 287 0 287
-16z m284 -34 c103 -11 111 -15 159 -68 48 -54 66 -117 66 -243 l0 -103 -20
41 c-23 47 -80 84 -130 84 -155 0 -201 -300 -61 -395 75 -51 154 -20 193 76
17 43 18 8 18 -1112 1 -1286 5 -1208 -67 -1290 l-37 -41 -145 -19 c-80 -10
-155 -21 -167 -24 -30 -7 -29 1 5 30 15 13 41 50 57 82 l30 58 0 1405 0 1405
-28 47 c-15 27 -41 55 -57 63 -56 29 -45 29 184 4z m176 0 c0 -5 7 -9 16 -9 8
0 12 -4 9 -10 -3 -5 -1 -10 6 -10 7 0 9 -3 6 -7 -4 -3 -2 -12 4 -20 22 -26 0
-13 -33 20 -36 36 -47 60 -23 51 8 -4 15 -10 15 -15z m-515 -27 c28 -13 63
-35 79 -50 61 -58 58 33 50 -1446 -6 -1266 -8 -1353 -24 -1386 -24 -46 -71
-93 -118 -116 -44 -23 -138 -25 -639 -13 -295 7 -337 10 -375 27 -61 27 -103
65 -130 120 l-23 47 1 1352 c1 1320 2 1352 21 1385 29 50 74 76 146 83 89 8
550 21 772 20 177 0 193 -2 240 -23z m619 -167 c11 -78 9 -2669 -2 -2696 -6
-15 -9 -29 -6 -32 7 -6 -28 -77 -38 -77 -4 0 -8 -6 -8 -14 0 -41 -106 -103
-180 -104 -44 -1 -44 -1 17 13 34 7 73 21 87 30 31 20 71 72 81 105 4 14 13
28 19 32 8 5 11 324 9 1172 -1 1011 -4 1168 -17 1188 -18 29 -15 142 5 178 19
33 19 235 1 270 l-13 25 20 -25 c10 -13 22 -43 25 -65z m-234 -140 c0 -2 -11
-20 -24 -40 -62 -91 -36 -243 48 -283 31 -16 29 -27 -4 -17 -30 10 -68 54 -86
103 -23 60 -14 151 20 203 22 33 46 51 46 34z m122 -54 c43 -68 24 -198 -33
-234 -30 -19 -69 1 -89 46 -34 74 -24 156 26 208 33 35 67 28 96 -20z m-350
-2608 c-23 -33 -62 -69 -62 -59 0 10 74 95 79 91 2 -2 -6 -16 -17 -32z"/>
<path d="M3469 2843 c-15 -2 -35 -13 -45 -25 -18 -19 -19 -58 -19 -917 0 -493
3 -908 7 -922 12 -42 56 -54 140 -41 39 6 78 18 87 27 14 14 16 105 19 917 3
1002 7 937 -65 957 -38 11 -73 12 -124 4z m138 -51 c10 -6 13 -208 13 -902 1
-1028 13 -923 -105 -918 l-70 3 -3 887 c-1 561 1 896 8 912 9 24 14 26 77 26
38 0 74 -4 80 -8z"/>
</g>
</svg>
